<svg xmlns="http://www.w3.org/2000/svg" xmlns:xlink="http://www.w3.org/1999/xlink" viewBox="0 0 225 225"><defs><style>.cls-1,.cls-11{fill:#8d5448;}.cls-1,.cls-28{stroke:#8d5448;stroke-width:3px;}.cls-1,.cls-17,.cls-23,.cls-28,.cls-33{stroke-linejoin:round;}.cls-2{isolation:isolate;}.cls-21,.cls-3,.cls-33{fill:#fff;}.cls-3{opacity:0.15;}.cls-4{fill:#cb7b29;}.cls-5{fill:#9a3535;}.cls-6{fill:#b93a3a;}.cls-7{fill:#ffda96;}.cls-8{fill:#ed7572;}.cls-9{fill:#ebc47f;}.cls-10{fill:#e3ba79;}.cls-12{fill:#fed995;}.cls-13,.cls-22,.cls-24,.cls-25,.cls-26,.cls-27,.cls-32{opacity:0.2;}.cls-14{fill:#cd6428;}.cls-15{fill:#f19074;}.cls-16{fill:#cc553a;}.cls-17,.cls-23,.cls-28{fill:none;}.cls-17{stroke:#cc553a;stroke-width:2px;}.cls-17,.cls-23,.cls-33{stroke-linecap:round;}.cls-18{fill:#443426;}.cls-19{clip-path:url(#clip-path);}.cls-20,.cls-33{opacity:0.1;}.cls-22,.cls-24,.cls-25,.cls-26,.cls-27,.cls-32{mix-blend-mode:overlay;}.cls-22{fill:url(#linear-gradient);}.cls-23,.cls-33{stroke:#fff;stroke-width:1.69px;}.cls-24{fill:url(#linear-gradient-2);}.cls-25{fill:url(#linear-gradient-3);}.cls-26{fill:url(#linear-gradient-4);}.cls-27{fill:url(#linear-gradient-5);}.cls-29,.cls-30{opacity:0.4;}.cls-29{fill:url(#Degradado_sin_nombre_2);}.cls-30{fill:url(#Degradado_sin_nombre_2-2);}.cls-31{fill:#e9ab70;}.cls-32{fill:url(#linear-gradient-6);}.cls-34{mix-blend-mode:soft-light;}.cls-35{fill:#e3ccbe;}.cls-36{fill:#e48d25;}.cls-37{fill:#973131;}</style><clipPath id="clip-path"><path class="cls-1" d="M81.56,56.44s3.44.57,10,1c.69,0,1.42-7.09,2.18-7s.75,6.07,2.2,7.3c3.32,2.8,10.52.36,17.4.26.44,0,.89-9,1.35-9s-.08,7.47,1.64,8.94,5.9-.2,9.44-.39c.29,0,1.18-6,1.48-6s.14,5,1.34,5.94c2.42,1.87,7.69-.55,12.2-1,0,0,2.88-32.3-30.73-31.45C79.36,25.81,81.56,56.44,81.56,56.44Z"/></clipPath><linearGradient id="linear-gradient" x1="96.69" y1="43.1" x2="97.19" y2="53.94" gradientUnits="userSpaceOnUse"><stop offset="0" stop-color="#fff"/><stop offset="1" stop-color="#fff" stop-opacity="0"/></linearGradient><linearGradient id="linear-gradient-2" x1="102.4" y1="44.29" x2="102.86" y2="54.27" xlink:href="#linear-gradient"/><linearGradient id="linear-gradient-3" x1="124.33" y1="41.93" x2="124.85" y2="53.27" xlink:href="#linear-gradient"/><linearGradient id="linear-gradient-4" x1="118.83" y1="43.09" x2="119.3" y2="53.29" xlink:href="#linear-gradient"/><linearGradient id="linear-gradient-5" x1="107.73" y1="46.07" x2="108.16" y2="55.45" xlink:href="#linear-gradient"/><linearGradient id="Degradado_sin_nombre_2" x1="97.74" y1="78.12" x2="97.74" y2="74.11" gradientUnits="userSpaceOnUse"><stop offset="0" stop-color="#f3994f" stop-opacity="0"/><stop offset="1" stop-color="#f3994f"/></linearGradient><linearGradient id="Degradado_sin_nombre_2-2" x1="125.88" y1="78.12" x2="125.88" y2="74.11" xlink:href="#Degradado_sin_nombre_2"/><linearGradient id="linear-gradient-6" x1="87.4" y1="44.44" x2="87.94" y2="56.13" xlink:href="#linear-gradient"/></defs><title>goals_avatars_Artboard 6</title><g class="cls-2"><g id="Growth_Manager" data-name="Growth Manager"><circle class="cls-3" cx="112.5" cy="112.5" r="109.55"/><path class="cls-4" d="M115.85,122.57c-1-.2-1.58-.35-1.58-.35a4.14,4.14,0,0,0-4.74,2.31,3.85,3.85,0,0,0,2.63,5.07s.65.22,1.81.56l1.48.4,1.68-7.75Z"/><path class="cls-5" d="M136.8,124l0-.05-8.89-3.24a1.66,1.66,0,0,0,0,.27.45.45,0,0,1,0,.16.63.63,0,0,1,0,.14,1.42,1.42,0,0,1-.23.45,1.76,1.76,0,0,1-.46.45,5.43,5.43,0,0,1-1.93.79,17.72,17.72,0,0,1-5.24.24c-1.06-.08-2-.22-2.84-.36l-1.68,7.75c1,.25,2.13.52,3.48.74a26.05,26.05,0,0,0,7.77.24,14.48,14.48,0,0,0,5-1.59,11,11,0,0,0,4.49-4.51,7.89,7.89,0,0,0,.36-.73A6,6,0,0,0,136.8,124Z"/><path class="cls-5" d="M137.49,121c0-.25.06-.51.07-.76v-.74a11.58,11.58,0,0,0-.09-1.45c-.07-.46-.15-.92-.24-1.38a12.27,12.27,0,0,0-.35-1.28,10.35,10.35,0,0,0-.42-1.21,22.69,22.69,0,0,0-4.65-7,31,31,0,0,0-2.3-2.19c-.71-.6-1.36-1.08-1.89-1.5l-1.71-1.17a4.66,4.66,0,0,0-.53-.3c-1.71-.9-4.14-1.6-5.58-1.07s-1.9,2.23-2.35,3.68a6.18,6.18,0,0,0,.25,4.21,5.72,5.72,0,0,0,1,1.7,4.87,4.87,0,0,0,1.52,1.22l1.24.7c.37.25.83.54,1.34.89s1.06.78,1.59,1.28a13,13,0,0,1,2.88,3.52,2.72,2.72,0,0,1,.21.47,3.67,3.67,0,0,1,.19.46c0,.15.08.29.13.44a2.43,2.43,0,0,1,.07.41l0,.2a1.48,1.48,0,0,1,0,.18c0,.12,0,.25,0,.37s0,.05,0,.08l8.89,3.24c.15-.48.3-1,.43-1.44A14.19,14.19,0,0,0,137.49,121Z"/><path class="cls-4" d="M106.24,122.74c1-.2,1.58-.35,1.58-.35a4.14,4.14,0,0,1,4.74,2.31,3.85,3.85,0,0,1-2.63,5.07s-.65.22-1.81.56l-1.48.4L105,123Z"/><path class="cls-5" d="M85.28,124.14l0-.05,8.89-3.24a1.66,1.66,0,0,1,0,.27.45.45,0,0,0,0,.16.63.63,0,0,0,0,.14,1.42,1.42,0,0,0,.23.45,1.76,1.76,0,0,0,.46.45,5.43,5.43,0,0,0,1.93.79,17.72,17.72,0,0,0,5.24.24c1.06-.08,2-.22,2.84-.36l1.68,7.75c-1,.25-2.13.52-3.48.74a26.05,26.05,0,0,1-7.77.24,14.48,14.48,0,0,1-5-1.59,11,11,0,0,1-4.49-4.51,7.89,7.89,0,0,1-.36-.73A6,6,0,0,1,85.28,124.14Z"/><path class="cls-5" d="M84.6,121.2c0-.25-.06-.51-.07-.76v-.74a11.58,11.58,0,0,1,.09-1.45c.07-.46.15-.92.24-1.38a12.27,12.27,0,0,1,.35-1.28,10.35,10.35,0,0,1,.42-1.21,22.69,22.69,0,0,1,4.65-7,31,31,0,0,1,2.3-2.19c.71-.6,1.36-1.08,1.89-1.5l1.71-1.17a4.66,4.66,0,0,1,.53-.3c1.71-.9,4.14-1.6,5.58-1.07s1.9,2.23,2.35,3.68a6.18,6.18,0,0,1-.25,4.21,5.72,5.72,0,0,1-1,1.7,4.87,4.87,0,0,1-1.52,1.22l-1.24.7c-.37.25-.83.54-1.34.89s-1.06.78-1.59,1.28a13,13,0,0,0-2.88,3.52,2.72,2.72,0,0,0-.21.47,3.67,3.67,0,0,0-.19.46c0,.15-.08.29-.13.44a2.43,2.43,0,0,0-.07.41l0,.2a1.48,1.48,0,0,0,0,.18c0,.12,0,.25,0,.37s0,.05,0,.08l-8.89,3.24c-.15-.48-.3-1-.43-1.44A14.19,14.19,0,0,1,84.6,121.2Z"/><path class="cls-6" d="M122.58,100.13c-3.62-1-5.16-2.18-11-2.18s-8,1.2-11.6,2.19c-2.29.62-4.13,3.61-4.13,6.48l.58,21.14s-4,8.48-4,16.51h37.85c0-7.08-4.77-16.51-4.77-16.51l1.16-21.14C126.7,103.75,124.87,100.76,122.58,100.13Z"/><path class="cls-7" d="M118.2,93.5l.41,5.2s-2.51,5.4-5.87,5.4-5.87-5.4-5.87-5.4l.41-5.21Z"/><polygon class="cls-8" points="102.63 108.27 99.73 113.56 96.52 107.79 99.28 102.03 102.63 108.27"/><polygon class="cls-8" points="125.71 107.79 122.96 113.56 119.6 108.27 123.51 102.03 125.71 107.79"/><polygon class="cls-8" points="111.04 120.3 107.13 126.06 103.21 120.3 106.42 114.54 111.04 120.3"/><polygon class="cls-8" points="103.06 120.3 99.15 126.06 96.52 120.3 99.73 114.54 103.06 120.3"/><polygon class="cls-8" points="119.02 120.3 115.1 126.06 111.19 120.3 115.81 114.54 119.02 120.3"/><polygon class="cls-8" points="111.04 108.27 106.55 114.03 102.63 108.27 105.84 102.51 111.04 108.27"/><polygon class="cls-8" points="119.6 108.27 115.68 114.03 111.19 108.27 116.39 102.51 119.6 108.27"/><polygon class="cls-8" points="125.71 120.3 123.08 126.06 119.17 120.3 122.5 114.54 125.71 120.3"/><polygon class="cls-8" points="111.04 132.1 107.13 137.86 103.21 132.1 107.13 126.34 111.04 132.1"/><polygon class="cls-8" points="102.93 132.1 99.02 137.86 95.1 132.1 99.02 126.34 102.93 132.1"/><polygon class="cls-8" points="119.02 132.1 115.1 137.86 111.19 132.1 115.1 126.34 119.02 132.1"/><polygon class="cls-8" points="127.13 132.1 123.21 137.86 119.3 132.1 123.21 126.34 127.13 132.1"/><polygon class="cls-8" points="127.13 144.27 119.3 144.27 123.21 137.67 127.13 144.27"/><polygon class="cls-8" points="119.02 144.27 111.19 144.27 115.1 137.67 119.02 144.27"/><polygon class="cls-8" points="110.91 144.27 103.08 144.27 107 137.67 110.91 144.27"/><polygon class="cls-8" points="102.8 144.27 94.97 144.27 98.89 137.67 102.8 144.27"/><path class="cls-9" d="M118.39,96a7,7,0,0,1-5.69,3.1,6.75,6.75,0,0,1-5.61-3.41,18,18,0,0,1,5.61-1.2A15.63,15.63,0,0,1,118.39,96Z"/><path class="cls-10" d="M118.34,96a7.54,7.54,0,0,1-5.88,2.62,7.11,7.11,0,0,1-5.8-2.89,22.12,22.12,0,0,1,5.8-1A18.94,18.94,0,0,1,118.34,96Z"/><path class="cls-11" d="M120.86,22.68H103c-12.62,0-29.67,21-29.67,39.44S85.4,91.39,98,91.39c5.67,0,10.85-4.84,14.85-9.84,4.17,6.44,10,9.84,16.58,9.84,12.62,0,22.24-10.15,22.24-28.63S133.48,22.68,120.86,22.68Z"/><path class="cls-12" d="M122.09,36.82H103.65C83.74,36.82,85.18,70,85.18,70V74A22.79,22.79,0,0,0,108,96.68h9.27A22.8,22.8,0,0,0,140.18,74v-3.9S142,36.82,122.09,36.82Z"/><ellipse class="cls-12" cx="81.76" cy="70.15" rx="5.2" ry="6.61"/><ellipse class="cls-12" cx="143.02" cy="70.15" rx="5.2" ry="6.61"/><g class="cls-13"><circle class="cls-14" cx="115.8" cy="77.35" r="0.52" transform="translate(-0.77 1.17) rotate(-0.58)"/><circle class="cls-14" cx="120.04" cy="72.52" r="0.52" transform="translate(-0.72 1.21) rotate(-0.58)"/><circle class="cls-14" cx="117.49" cy="81.41" r="0.52" transform="translate(-0.83 1.21) rotate(-0.59)"/><circle class="cls-14" cx="119.55" cy="75.89" r="0.52" transform="translate(-0.76 1.21) rotate(-0.58)"/><circle class="cls-14" cx="124.52" cy="73.82" r="0.52" transform="matrix(1, -0.01, 0.01, 1, -0.76, 1.29)"/><circle class="cls-14" cx="121.87" cy="78.49" r="0.52" transform="translate(-0.78 1.23) rotate(-0.58)"/><circle class="cls-14" cx="126.32" cy="77.25" r="0.52" transform="translate(-0.77 1.27) rotate(-0.58)"/><circle class="cls-14" cx="130.28" cy="80.24" r="0.52" transform="translate(-0.8 1.31) rotate(-0.58)"/><circle class="cls-14" cx="129.74" cy="78.41" r="0.52" transform="translate(-0.78 1.31) rotate(-0.58)"/><circle class="cls-14" cx="132.25" cy="78.91" r="0.52" transform="translate(-0.78 1.33) rotate(-0.57)"/><circle class="cls-14" cx="130.21" cy="72.94" r="0.52" transform="translate(-0.72 1.31) rotate(-0.57)"/><circle class="cls-14" cx="136.8" cy="74.07" r="0.52" transform="translate(-0.74 1.38) rotate(-0.58)"/><circle class="cls-14" cx="86.38" cy="75.18" r="0.52" transform="translate(-0.77 0.9) rotate(-0.59)"/><circle class="cls-14" cx="92.58" cy="75.12" r="0.52" transform="translate(-0.77 0.96) rotate(-0.59)"/><circle class="cls-14" cx="92.56" cy="72.26" r="0.52" transform="translate(-0.74 0.96) rotate(-0.59)"/><circle class="cls-14" cx="98.01" cy="79.26" r="0.52" transform="translate(-0.79 0.99) rotate(-0.58)"/><circle class="cls-14" cx="93.16" cy="79.83" r="0.52" transform="translate(-0.82 0.97) rotate(-0.59)"/><circle class="cls-14" cx="102.26" cy="73.23" r="0.52" transform="translate(-0.75 1.06) rotate(-0.59)"/><circle class="cls-14" cx="105.81" cy="80.23" r="0.52" transform="translate(-0.8 1.07) rotate(-0.58)"/><circle class="cls-14" cx="98.46" cy="74.54" r="0.52" transform="translate(-0.77 1.02) rotate(-0.59)"/><circle class="cls-14" cx="108.24" cy="76.91" r="0.52" transform="matrix(1, -0.01, 0.01, 1, -0.79, 1.12)"/><circle class="cls-14" cx="100.88" cy="76.98" r="0.52" transform="translate(-0.79 1.04) rotate(-0.59)"/><circle class="cls-14" cx="102.74" cy="81.04" r="0.52" transform="translate(-0.81 1.03) rotate(-0.57)"/><circle class="cls-14" cx="106.93" cy="72.66" r="0.52" transform="translate(-0.73 1.08) rotate(-0.58)"/></g><path class="cls-15" d="M116.3,86.07c0,1.09-1.9,2-4.24,2s-4.24-.88-4.24-2,1.9-.77,4.24-.77S116.3,85,116.3,86.07Z"/><path class="cls-16" d="M114.12,82.45c-.87,0-1.63.86-2.06,1.24-.43-.38-1.19-1.24-2.06-1.24-1.34,0-3,1.2-3,1.95s1.69,1.35,3,1.35l.37,0a20,20,0,0,1,3.39,0l.37,0c1.34,0,3-.6,3-1.35S115.47,82.45,114.12,82.45Z"/><path class="cls-17" d="M100.5,82.65a1.1,1.1,0,0,1,1.55.06c.06.06,2.61,2.58,9.54,2.58s9.52-2.56,9.54-2.59a1.1,1.1,0,0,1,1.55,0"/><path class="cls-18" d="M100.51,70.44a2.83,2.83,0,0,1-5.67,0V69.21a2.83,2.83,0,1,1,5.67,0Z"/><path class="cls-18" d="M128.34,70.44a2.83,2.83,0,0,1-5.67,0V69.21a2.83,2.83,0,1,1,5.67,0Z"/><path class="cls-18" d="M95.27,69.62a2.89,2.89,0,0,1-2.89-2.88.6.6,0,0,1,1.2,0,1.69,1.69,0,0,0,1.69,1.69.6.6,0,1,1,0,1.2Z"/><path class="cls-18" d="M127.8,69.62a2.89,2.89,0,0,0,2.89-2.88.6.6,0,0,0-1.2,0,1.69,1.69,0,0,1-1.69,1.69.6.6,0,1,0,0,1.2Z"/><path class="cls-11" d="M100.71,59.74a1.25,1.25,0,0,0-.52-.08H93.66a1.37,1.37,0,0,0-1.22,1.49,1.4,1.4,0,0,0,1.23,1.51h6.53a1.37,1.37,0,0,0,1.22-1.49A1.56,1.56,0,0,0,100.71,59.74Z"/><path class="cls-11" d="M129.43,59.74a1.25,1.25,0,0,0-.52-.08h-6.53a1.37,1.37,0,0,0-1.22,1.49,1.4,1.4,0,0,0,1.23,1.51h6.53a1.37,1.37,0,0,0,1.22-1.49A1.56,1.56,0,0,0,129.43,59.74Z"/><path class="cls-11" d="M137.82,77.56a1,1,0,0,1-.88-1c-.12-6.38,0-20.11,0-21.78-1.26-3.77-.94-4.21-.69-4.57a1.16,1.16,0,0,1,.88-.45c.73,0,1.17,0,4.59,6.77a1,1,0,0,1,.1.38c.93,12.48.48,13,.05,13.42a1.17,1.17,0,0,1-.79.35h0a1.09,1.09,0,0,1-.44-.09l-1.7,6.21a1,1,0,0,1-1,.74Z"/><path class="cls-11" d="M137.1,50.79c.3,0,1.29,1.47,3.69,6.22.76,10.28.59,12.69.26,12.69s-.71-1.88-.71-1.88l-2.4,8.74c-.13-6.83,0-21.92,0-21.92s-1.3-3.86-.81-3.86m0-2a2.09,2.09,0,0,0-1.69.87c-.52.72-.76,1.49.5,5.31,0,2.26-.08,15.43,0,21.64a2,2,0,0,0,1.75,1.95l.25,0a2,2,0,0,0,1.93-1.47l1.49-5.41a2.1,2.1,0,0,0,1.22-.65c.73-.79,1.17-1.26.21-14.17a2,2,0,0,0-.21-.75c-3.36-6.65-4-7.32-5.48-7.32Z"/><path class="cls-11" d="M84.44,78.17a1,1,0,0,1-.94-.67l-1.78-5.16a1.15,1.15,0,0,1-.26,0,1.11,1.11,0,0,1-.82-.37c-.43-.46-1-1.1,0-14.46a1,1,0,0,1,.1-.38c3.42-6.77,3.86-6.77,4.59-6.77a1.16,1.16,0,0,1,.88.45c.25.36.57.8-.69,4.57,0,1.67.09,15.4,0,21.78a1,1,0,0,1-.84,1Z"/><path class="cls-11" d="M85.29,51.39c.49,0-.81,3.86-.81,3.86s.1,15.09,0,21.92L82,70.23s-.32,1.14-.59,1.14-.7-2.34.14-13.75c2.4-4.75,3.39-6.22,3.69-6.22m0-2h0c-1.44,0-2.12.68-5.48,7.32a2,2,0,0,0-.21.75c-1,13.79-.41,14.45.3,15.21a2.15,2.15,0,0,0,1.1.63l1.56,4.51a2,2,0,0,0,1.89,1.35l.31,0a2,2,0,0,0,1.69-1.94c.12-6.21.05-19.38,0-21.64,1.26-3.82,1-4.59.5-5.31a2.09,2.09,0,0,0-1.69-.87Z"/><path class="cls-11" d="M81.56,56.44s3.44.57,10,1c.69,0,1.42-7.09,2.18-7s.75,6.07,2.2,7.3c3.32,2.8,10.52.36,17.4.26.44,0,.89-9,1.35-9s-.08,7.47,1.64,8.94,5.9-.2,9.44-.39c.29,0,1.18-6,1.48-6s.14,5,1.34,5.94c2.42,1.87,7.69-.55,12.2-1,0,0,2.88-32.3-30.73-31.45C79.36,25.81,81.56,56.44,81.56,56.44Z"/><g class="cls-19"><g class="cls-20"><path class="cls-21" d="M86.76,59.31S84,30.8,106.63,26.73c0,0-17.22,3.51-16.59,33.28Z"/><path class="cls-22" d="M86.76,59.31S84,30.8,106.63,26.73c0,0-17.22,3.51-16.59,33.28Z"/><path class="cls-23" d="M86.76,59.31S84,30.8,106.63,26.73c0,0-17.22,3.51-16.59,33.28Z"/></g><g class="cls-20"><path class="cls-21" d="M97.59,59s-5.45-18.38,10.21-29.59c0,0-11.68,9.62-6.93,30.29Z"/><path class="cls-24" d="M97.59,59s-5.45-18.38,10.21-29.59c0,0-11.68,9.62-6.93,30.29Z"/><path class="cls-23" d="M97.59,59s-5.45-18.38,10.21-29.59c0,0-11.68,9.62-6.93,30.29Z"/></g><g class="cls-20"><path class="cls-21" d="M134.12,58.31s2.78-28.51-19.87-32.58c0,0,17.22,3.51,16.59,33.28Z"/><path class="cls-25" d="M134.12,58.31s2.78-28.51-19.87-32.58c0,0,17.22,3.51,16.59,33.28Z"/><path class="cls-23" d="M134.12,58.31s2.78-28.51-19.87-32.58c0,0,17.22,3.51,16.59,33.28Z"/></g><g class="cls-20"><path class="cls-21" d="M123.29,58s5.45-18.38-10.21-29.59c0,0,11.68,9.62,6.93,30.29Z"/><path class="cls-26" d="M123.29,58s5.45-18.38-10.21-29.59c0,0,11.68,9.62,6.93,30.29Z"/><path class="cls-23" d="M123.29,58s5.45-18.38-10.21-29.59c0,0,11.68,9.62,6.93,30.29Z"/></g><g class="cls-20"><path class="cls-21" d="M106.37,59.12s.07-19.95,2.68-26.87c0,0-.26,24.17.33,26.93S106.37,59.12,106.37,59.12Z"/><path class="cls-27" d="M106.37,59.12s.07-19.95,2.68-26.87c0,0-.26,24.17.33,26.93S106.37,59.12,106.37,59.12Z"/><path class="cls-23" d="M106.37,59.12s.07-19.95,2.68-26.87c0,0-.26,24.17.33,26.93S106.37,59.12,106.37,59.12Z"/></g></g><path class="cls-28" d="M81.56,56.44s3.44.57,10,1c.69,0,1.42-7.09,2.18-7s.75,6.07,2.2,7.3c3.32,2.8,10.52.36,17.4.26.44,0,.89-9,1.35-9s-.08,7.47,1.64,8.94,5.9-.2,9.44-.39c.29,0,1.18-6,1.48-6s.14,5,1.34,5.94c2.42,1.87,7.69-.55,12.2-1,0,0,2.88-32.3-30.73-31.45C79.36,25.81,81.56,56.44,81.56,56.44Z"/><ellipse class="cls-29" cx="97.74" cy="76.12" rx="4.57" ry="2"/><ellipse class="cls-30" cx="125.88" cy="76.12" rx="4.57" ry="2"/><ellipse class="cls-31" cx="112.06" cy="78.16" rx="3.28" ry="1.18"/><g class="cls-20"><path class="cls-21" d="M75.39,62.9c.82-5.17,4.81-30,24.06-36.17,0,0-15.66,5.75-17.79,30.29A12.37,12.37,0,0,0,75.39,62.9Z"/><path class="cls-32" d="M75.39,62.9c.82-5.17,4.81-30,24.06-36.17,0,0-15.66,5.75-17.79,30.29A12.37,12.37,0,0,0,75.39,62.9Z"/><path class="cls-23" d="M75.39,62.9c.82-5.17,4.81-30,24.06-36.17,0,0-15.66,5.75-17.79,30.29A12.37,12.37,0,0,0,75.39,62.9Z"/></g><path class="cls-33" d="M124.46,26.73s14.7,7.93,16.87,34.42c0,0,3.07-.45,4.56,1.5C145.89,62.65,142.53,35.7,124.46,26.73Z"/><g class="cls-34"><path class="cls-35" d="M127,64.58a33,33,0,0,0-7.25.92,4.67,4.67,0,0,0-3.27,2.25c-1.12,2.13,0,4.93.47,6.28l.08.22c.57,1.52,2.32,6.15,9.15,6.39h.52c5.64,0,8.45-3.38,8.57-10.32a4.89,4.89,0,0,0-1.35-3.66C132.58,65.29,130.24,64.58,127,64.58Z"/><path class="cls-35" d="M103.05,65.1a33.35,33.35,0,0,0-7.34-.93c-3.29,0-5.65.71-7,2.11A4.94,4.94,0,0,0,87.32,70c.12,7,3,10.46,8.68,10.46h.53c6.92-.24,8.69-4.93,9.27-6.47l.08-.22c.52-1.36,1.62-4.2.48-6.36A4.73,4.73,0,0,0,103.05,65.1Z"/></g><path class="cls-18" d="M103.52,65.66c5.21,1.24,3,6.39,2.34,8.1s-2.38,5.88-8.75,6.1S88.6,76.18,88.49,70C88.37,63.39,98.31,64.42,103.52,65.66Zm31.79,4.66c-.11,6.13-2.21,10-8.5,9.75s-8-4.29-8.63-6-2.83-6.77,2.31-8S135.42,63.82,135.31,70.31ZM109.25,65c-9.77-3.53-20-2.12-23.67-1.4a1.8,1.8,0,0,0-1.46,1.77V67a1.44,1.44,0,0,0,.56,1.1,2.82,2.82,0,0,1,.66.89C87.18,75.72,87,81.47,96.91,81.64c10.56.18,11.51-9,13-11.74a2.68,2.68,0,0,1,4.16,0l.09.12c1.46,2.71,2.42,11.92,13,11.74,9.92-.17,9.74-5.92,11.56-12.64a2.82,2.82,0,0,1,.66-.9,1.44,1.44,0,0,0,.56-1.1V65.51a1.8,1.8,0,0,0-1.46-1.78c-3.72-.72-13.9-2.13-23.67,1.4A13.21,13.21,0,0,1,109.25,65Z"/><path class="cls-36" d="M103.5,192.37l6.57,1.59-.92-31.78H95.89C99.3,177.34,103.5,192.37,103.5,192.37Z"/><path class="cls-12" d="M94,152.75c.58,2.91,1.24,6.38,1.93,9.44h13.26l-.26-9.44Z"/><path class="cls-36" d="M113.16,162.18,112.28,194l6-1.46s4.28-15.18,7.82-30.32Z"/><path class="cls-12" d="M128.11,152.75h-14.7l-.25,9.44h12.92C126.81,159.11,127.49,155.64,128.11,152.75Z"/><polygon class="cls-5" points="92.43 144.37 89.44 152.61 133.33 152.61 129.74 144.37 92.43 144.37"/><rect class="cls-37" x="106.32" y="195.65" width="1.49" height="3.56"/><path class="cls-6" d="M101.16,194.36A4.28,4.28,0,0,0,99,197a8.38,8.38,0,0,0-.24,1.22.88.88,0,0,0,.89,1h4.2a1.53,1.53,0,0,0,1-.38l3-2.61a2.25,2.25,0,0,0,2.25-2.25l-2.39.57a12.79,12.79,0,0,1-6.52-.17Z"/><polygon class="cls-6" points="107.82 196.21 107.82 199.21 108.62 199.21 109.81 195 107.82 196.21"/><path class="cls-6" d="M108.62,199.21a11.4,11.4,0,0,0,1.45-5.25l-1.25,2.09Z"/><path class="cls-36" d="M101.16,194.36a11.43,11.43,0,0,1,8.91-.4l-2.39.57a12.79,12.79,0,0,1-6.52-.17Z"/><polygon class="cls-36" points="103.5 192.37 103.74 193.49 110.07 193.96 108.81 192.37 103.5 192.37"/><rect class="cls-37" x="114.54" y="195.65" width="1.49" height="3.56" transform="translate(230.57 394.86) rotate(180)"/><path class="cls-6" d="M121.19,194.36a4.28,4.28,0,0,1,2.19,2.65,8.38,8.38,0,0,1,.24,1.22.88.88,0,0,1-.89,1h-4.2a1.53,1.53,0,0,1-1-.38l-3-2.61a2.25,2.25,0,0,1-2.25-2.25l2.39.57a12.79,12.79,0,0,0,6.52-.17Z"/><polygon class="cls-6" points="114.54 196.21 114.54 199.21 113.73 199.21 112.54 195 114.54 196.21"/><path class="cls-6" d="M113.73,199.21a11.4,11.4,0,0,1-1.45-5.25l1.25,2.09Z"/><path class="cls-36" d="M121.19,194.36a11.43,11.43,0,0,0-8.91-.4l2.39.57a12.79,12.79,0,0,0,6.52-.17Z"/><polygon class="cls-36" points="118.3 192.37 118.06 193.49 112.28 193.96 113.54 192.37 118.3 192.37"/></g></g></svg>