<svg xmlns="http://www.w3.org/2000/svg" xmlns:xlink="http://www.w3.org/1999/xlink" viewBox="0 0 225 225"><defs><style>.cls-1{fill:#845f5f;}.cls-10,.cls-17,.cls-18,.cls-2{fill:#453426;}.cls-17,.cls-18,.cls-2,.cls-23{stroke:#453426;}.cls-17,.cls-2,.cls-20,.cls-23{stroke-linejoin:round;}.cls-2,.cls-23{stroke-width:1.98px;}.cls-3{isolation:isolate;}.cls-15,.cls-20,.cls-22,.cls-4{fill:#fff;}.cls-4{opacity:0.15;}.cls-5{fill:#ebc082;}.cls-6{fill:#b69069;}.cls-7{fill:#a3815e;}.cls-8{opacity:0.2;mix-blend-mode:multiply;}.cls-9{fill:#c59c6d;}.cls-11{fill:#ebc47f;}.cls-12{clip-path:url(#clip-path);}.cls-13{opacity:0.4;}.cls-14,.cls-24{mix-blend-mode:soft-light;}.cls-16{fill:#613a3a;}.cls-17,.cls-18{stroke-width:2px;}.cls-18{stroke-miterlimit:10;}.cls-19{clip-path:url(#clip-path-2);}.cls-20{stroke:#fff;stroke-linecap:round;stroke-width:1.55px;opacity:0.1;}.cls-21,.cls-22{opacity:0.06;}.cls-23{fill:none;}.cls-24{fill:#eddbe2;fill-rule:evenodd;}.cls-25{fill:#715742;}.cls-26{opacity:0.6;fill:url(#Degradado_sin_nombre_25);}</style><clipPath id="clip-path"><path class="cls-1" d="M123.3,112.44a50.46,50.46,0,0,0-12.27-1.8,50.67,50.67,0,0,0-12.31,1.8c-2,.51-4.1,3-4.65,5.39a181.23,181.23,0,0,0-4.14,41.06h42.49a180.1,180.1,0,0,0-4.17-41.06A8.18,8.18,0,0,0,123.3,112.44Z"/></clipPath><clipPath id="clip-path-2"><path class="cls-2" d="M143.48,50s-1.15-.69-3.32-2.25c1.21-3.53.79-8.06-1.57-10.43s-6.63-3.1-10.24-3.43a25.27,25.27,0,0,0-4.62-2.9c-.77-2.89-2.49-6.58-6.35-6.91C111,23.51,111,22.31,111,22.31a11.49,11.49,0,0,0-.14,2.4c-3.92-.43-4.47-1.05-4.88-2.07a12.71,12.71,0,0,0-.46,6.31l-1,.18a8,8,0,0,0-3.29-1c-7.69-.66-5.34,2.52-9.72,4-1.38.48-4.81.11-4.81.11a5.5,5.5,0,0,0,2.78,5c-.37.41-.73.83-1.07,1.26a8.06,8.06,0,0,0-3.31-1.27C85.22,40,79,42.1,82.54,47.79a7.15,7.15,0,0,0,.95,1.2c-.61,2.6-2.09,6.8-2,9.72.29,16.67,1.76,21.2,3.07,21.35l.05,0c1.16.15.67-5.7,1-9.87s-1-14.59,3.64-16.67a16,16,0,0,1,3.66-1.16l.65,0c0,1.28,0,2.56,0,3.65,0,0,4.17.46,4.86-3.41,0-.16.06-.31.1-.46.61-.07.64-.06,1.2-.15-.17,1.47-.45,2.69-.45,2.69,1.6-1.34,3.64-.3,12.8-.74a11.09,11.09,0,0,0,6.85-2.32c2.92.07,5.22.15,6.53.09,2.91-.15,9.16-1.34,9.89,7.44s1.42,20.76,2,20.76,2.27-3.46,2.71-7.48a153.82,153.82,0,0,0,.64-18.7C142.91,53.07,143.48,50,143.48,50Z"/></clipPath><linearGradient id="Degradado_sin_nombre_25" x1="111.06" y1="82.85" x2="111.06" y2="90.03" gradientUnits="userSpaceOnUse"><stop offset="0" stop-color="#f89a4b" stop-opacity="0"/><stop offset="1" stop-color="#d36027"/></linearGradient></defs><title>goals_avatars_Artboard 6</title><g class="cls-3"><g id="Product_Designer" data-name="Product Designer"><circle class="cls-4" cx="112.5" cy="112.5" r="109.55"/><path class="cls-5" d="M153.9,151.46c1,1,1.68,1.77,2.71,2.8,2.07,2.07,1.28,6.2-.79,8.27s-5.81,2.46-7.87.39c-1-1-1.74-1.79-2.7-2.81Z"/><path class="cls-6" d="M140.78,155.13c-15.52-18.22-20.47-34-20.71-34.72-.87-2.78,1.07-6.92,3.85-7.8s5,1.45,5.85,4.23c.05.16,5.7,13.58,19.64,29.66.71.82,1.47,1.68,2.26,2.54L143,157.69C142.24,156.82,141.48,156,140.78,155.13Z"/><path class="cls-7" d="M151.66,149c.74.81,1.49,1.62,2.24,2.41l-8.65,8.65c-.74-.79-1.49-1.61-2.23-2.42Z"/><path class="cls-9" d="M98.79,122.53c3.17-.93,5-3.05,4.07-6.22s-4.25-3.8-7.42-2.87c-12.06,3.52-20,12.88-20.26,24.22h12A16.19,16.19,0,0,1,98.79,122.53Z"/><path class="cls-10" d="M125.94,207.42c4.51-15.33,5.8-32.08,4.9-48.53H88.93c-.88,16.44.44,33.2,5,48.53q6.09,1.26,11.57,2.51c-1.82-13.14-3.49-27.47-4.53-41.63-.25-2.42,2.6-4.56,6.34-4.56h5.19c3.74,0,6.59,2.13,6.35,4.56-1,14.16-2.64,28.49-4.44,41.63Q119.84,208.68,125.94,207.42Z"/><path class="cls-10" d="M93.89,207.42s0,.13,0,.13c-2.58,0-3.79,2.58-3.16,3.95.29.68.93,1.29,1.38,1.29h11.82c1,0,1.7-1.27,1.54-2.85C105.71,209.94,96.14,205.72,93.89,207.42Z"/><path class="cls-10" d="M125.95,207.54s0-.11,0-.13c-2.26-1.7-11.83,2.52-11.57,2.51-.15,1.58.53,2.85,1.54,2.85h11.82c.45,0,1.1-.61,1.38-1.29C129.72,210.12,129.49,207.54,125.95,207.54Z"/><path class="cls-7" d="M124.23,111.91c1.72,6.26-4.9,11.48-14.26,11.48s-16-5.22-14.28-11.48,8.41-11.15,14.26-11.15S122.43,105.64,124.23,111.91Z"/><path class="cls-11" d="M117.38,110s-1.83,1.62-6.25,1.62-6.32-1.63-6.3-1.63a23.71,23.71,0,0,1,6.3-1.18A23,23,0,0,1,117.38,110Z"/><path class="cls-1" d="M123.3,112.44a50.46,50.46,0,0,0-12.27-1.8,50.67,50.67,0,0,0-12.31,1.8c-2,.51-4.1,3-4.65,5.39a181.23,181.23,0,0,0-4.14,41.06h42.49a180.1,180.1,0,0,0-4.17-41.06A8.18,8.18,0,0,0,123.3,112.44Z"/><g class="cls-12"><g class="cls-13"><g class="cls-14"><path class="cls-15" d="M95.88,160H93.34a199.28,199.28,0,0,1,5.26-49.29h1.84A228.88,228.88,0,0,0,95.88,160Z"/><path class="cls-15" d="M101,160H98.41a269.48,269.48,0,0,1,3.85-49.29h1.84A328.5,328.5,0,0,0,101,160Z"/><path class="cls-15" d="M106,160h-2.54a421.85,421.85,0,0,1,2.44-49.29h1.84C106.52,126.47,105.94,143.25,106,160Z"/><path class="cls-15" d="M111.11,160h-2.54c-.05-16.72.29-33.5,1-49.29h1.84C111.2,126.47,111.09,143.25,111.11,160Z"/><path class="cls-15" d="M116.18,160h-2.54c0-16.72-.1-33.5-.37-49.29h1.84C115.88,126.47,116.24,143.25,116.18,160Z"/><path class="cls-15" d="M121.26,160h-2.54c.09-16.72-.5-33.5-1.78-49.29h1.84A415.37,415.37,0,0,1,121.26,160Z"/><path class="cls-15" d="M126.34,160H123.8a324.6,324.6,0,0,0-3.18-49.29h1.84A266.88,266.88,0,0,1,126.34,160Z"/><path class="cls-15" d="M131.42,160h-2.54a227,227,0,0,0-4.59-49.29h1.84A197.9,197.9,0,0,1,131.42,160Z"/></g><g class="cls-14"><path class="cls-10" d="M92.16,111.68q-.37,1.17-.72,2.34h39.45q-.35-1.17-.72-2.34Z"/><path class="cls-10" d="M90.12,118.74h42.1q-.31-1.19-.64-2.37H90.76Q90.43,117.55,90.12,118.74Z"/><path class="cls-10" d="M89,123.5h44.42q-.27-1.2-.56-2.39H89.52Q89.23,122.31,89,123.5Z"/><path class="cls-10" d="M88,128.31h46.43q-.23-1.21-.48-2.41H88.44Q88.19,127.1,88,128.31Z"/><path class="cls-10" d="M87.12,133.15h48.12q-.19-1.21-.4-2.42H87.52Q87.31,131.94,87.12,133.15Z"/><path class="cls-10" d="M86.43,138h49.48q-.15-1.22-.32-2.44H86.76Q86.58,136.8,86.43,138Z"/><path class="cls-10" d="M86.15,140.47q-.12,1.12-.22,2.24l0,.21h50.53l0-.21q-.1-1.12-.22-2.24l0-.2h-50Z"/><path class="cls-10" d="M85.71,145.37q-.08,1.13-.15,2.25v.21h51.26v-.21q-.07-1.13-.15-2.25l0-.21H85.73Z"/><path class="cls-10" d="M85.35,152.54H137q0-1.23-.09-2.46H85.44Q85.38,151.31,85.35,152.54Z"/><path class="cls-10" d="M85.3,157.47h51.76q0-1.23,0-2.46H85.3Q85.29,156.24,85.3,157.47Z"/></g></g></g><path class="cls-11" d="M116.69,105.31l1.16,6a92.59,92.59,0,0,1-6.85,12,91.82,91.82,0,0,1-6.82-12q.59-3,1.18-6Z"/><path class="cls-16" d="M114.3,125a.91.91,0,0,1-.88,1,1,1,0,0,1-.93-1,.93.93,0,0,1,.88-1A1,1,0,0,1,114.3,125Z"/><path class="cls-16" d="M114.57,135.91a1,1,0,0,1-1,1,1,1,0,0,1-1-1,1,1,0,0,1,1-1A1,1,0,0,1,114.57,135.91Z"/><path class="cls-16" d="M114.45,130.45a.94.94,0,0,1-.93,1,1,1,0,0,1-1-1,1,1,0,0,1,.93-1A1,1,0,0,1,114.45,130.45Z"/><path class="cls-16" d="M114.66,141.41a1,1,0,0,1-1,1,1,1,0,0,1-1-1,1,1,0,0,1,1-1A1,1,0,0,1,114.66,141.41Z"/><ellipse class="cls-16" cx="113.73" cy="152.47" rx="1.04" ry="1"/><path class="cls-16" d="M114.73,146.93a1,1,0,0,1-1,1,1,1,0,0,1-1-1,1,1,0,0,1,1-1A1,1,0,0,1,114.73,146.93Z"/><path class="cls-16" d="M111,158.28a.32.32,0,0,1-.32-.33c0-11.75,0-23.52.06-34.93l.27.29.28-.23c0,11.39,0,23.14,0,34.87A.32.32,0,0,1,111,158.28Z"/><path class="cls-16" d="M104.18,111.27a91.82,91.82,0,0,0,6.82,12l-1.4-.61a9.38,9.38,0,0,0-6.08-.53,1,1,0,0,1-1.17-1.28Q103.24,116,104.18,111.27Z"/><path class="cls-16" d="M117.85,111.27a92.59,92.59,0,0,1-6.85,12l1.4-.61a9.39,9.39,0,0,1,6.08-.53,1,1,0,0,0,1.17-1.28Q118.77,116,117.85,111.27Z"/><path class="cls-9" d="M102.38,111c-.93.2-2.33.42-3.25.66,0,0-4,.32-5.56,6.67-1.24,5.24-2.63,14.26-2.91,17.27l-.11,1a180.37,180.37,0,0,0-1.11,21,3.17,3.17,0,0,0,3.21,3.08H98.2a1.24,1.24,0,0,0,1.26-1.23,320.34,320.34,0,0,1,3.16-48.23A.19.19,0,0,0,102.38,111Z"/><path class="cls-9" d="M123.19,111.66h0c-1-.24-2.35-.46-3.25-.65a.2.2,0,0,0-.23.18,316.61,316.61,0,0,1,3.2,48.24,1.24,1.24,0,0,0,1.26,1.23h5.54a3.17,3.17,0,0,0,3.21-3.08,179.21,179.21,0,0,0-1.11-21l-.11-1c-.29-3-1.68-12-2.93-17.27C127.24,112.09,123.29,111.69,123.19,111.66Z"/><path class="cls-7" d="M121.74,128.79a86.08,86.08,0,0,0,4-14,5.88,5.88,0,0,0-1.55-4.73c-2.09-2.33-4-4.64-5.77-6.92C119.88,111.4,121,120,121.74,128.79Z"/><path class="cls-7" d="M100.6,128.79a86.42,86.42,0,0,1-4-14A5.87,5.87,0,0,1,98.15,110c2.09-2.33,4-4.64,5.76-6.92C102.45,111.4,101.35,120,100.6,128.79Z"/><path class="cls-7" d="M89.48,152.67q0-.92,0-1.85c6.12,0,7.47-6.18,7.55-6.44l1.83.3C98.33,147.44,95.69,152.67,89.48,152.67Z"/><path class="cls-7" d="M132.88,152.67c-6.21,0-8.85-5.23-9.43-8l1.83-.3c.07.26,1.43,6.44,7.55,6.44Q132.86,151.74,132.88,152.67Z"/><ellipse class="cls-5" cx="82.27" cy="86.1" rx="5.2" ry="6.61"/><ellipse class="cls-5" cx="139.95" cy="86.7" rx="5.2" ry="6.61"/><path class="cls-5" d="M138.4,63.15a22.74,22.74,0,0,0-22.74-22.74h-9.21A22.74,22.74,0,0,0,83.72,63.15V93.61A16.3,16.3,0,0,0,100,109.9H122.1a16.3,16.3,0,0,0,16.3-16.3Z"/><path class="cls-17" d="M111,92.07c-5.12,0-10.3-1.18-13,1.67-2.17,2.85-2.51,10,0,13,1.19-3.57.89-7.54,4.23-8.9,2.95-1.19,7,.13,8.78-3,2,4.43,8,1.18,10.91,5.25,1.39,1.94,1.37,3.57,2.37,7.12,2.78-2.48,2.63-9.47.83-12.14C122.47,91.09,116.86,92.11,111,92.07Z"/><path class="cls-17" d="M137.12,86.61c-.09,1.87-1.91,5-4.16,7.24-1.61,1.59-7.59,3.76-10.53,4.75a3.41,3.41,0,0,0-2,1.78c-.6,1.25-2.22,3-6.55,3-1.24,0-2.11-1.81-3.09-1.77h-.07c-1,0-1.86,1.77-3.09,1.77-4.31,0-5.93-1.75-6.53-3a3.34,3.34,0,0,0-2-1.76c-2.89-.91-8.72-2.85-10.52-4.2-2.05-1.53-4.07-7.15-4.15-9-.33-1.49-1.67,7.88-1,10,.54,1.79,1.65,8.26,4.35,11.61a16.25,16.25,0,0,0,4.52,4.26c.86.79-.49-3.78-.44-3.79a49.32,49.32,0,0,0,4.84,5.65c1.38,1.1,9.39,5.65,12.91,6.43a7.38,7.38,0,0,0,2.36,0c3.52-.78,11.52-5.33,12.91-6.43a49.11,49.11,0,0,0,4.84-5.65c.05,0-1.31,4.58-.44,3.79a16.2,16.2,0,0,0,4.52-4.26c2.7-3.35,3.83-9.82,4.37-11.61.64-2.11-.71-10.29-1-8.8"/><path class="cls-10" d="M99.37,83.19a2.83,2.83,0,0,1-5.67,0V82a2.83,2.83,0,1,1,5.67,0Z"/><path class="cls-10" d="M99.37,83.19a2.83,2.83,0,0,1-5.67,0V82a2.83,2.83,0,1,1,5.67,0Z"/><path class="cls-10" d="M127.21,83.19a2.83,2.83,0,0,1-5.67,0V82a2.83,2.83,0,1,1,5.67,0Z"/><path class="cls-18" d="M103.2,73.08a1.48,1.48,0,0,1-.51.07h-10a1.2,1.2,0,0,1-1.2-1.2,1.22,1.22,0,0,1,1.21-1.22h10a1.2,1.2,0,0,1,1.2,1.2A1.22,1.22,0,0,1,103.2,73.08Z"/><path class="cls-18" d="M129.66,73.08a1.48,1.48,0,0,1-.51.07h-9.44a1.2,1.2,0,0,1-1.2-1.2,1.22,1.22,0,0,1,1.21-1.22h9.44a1.2,1.2,0,0,1,1.2,1.2A1.22,1.22,0,0,1,129.66,73.08Z"/><path class="cls-10" d="M143.48,50s-1.15-.69-3.32-2.25c1.21-3.53.79-8.06-1.57-10.43s-6.63-3.1-10.24-3.43a25.27,25.27,0,0,0-4.62-2.9c-.77-2.89-2.49-6.58-6.35-6.91C111,23.51,111,22.31,111,22.31a11.49,11.49,0,0,0-.14,2.4c-3.92-.43-4.47-1.05-4.88-2.07a12.71,12.71,0,0,0-.46,6.31l-1,.18a8,8,0,0,0-3.29-1c-7.69-.66-5.34,2.52-9.72,4-1.38.48-4.81.11-4.81.11a5.5,5.5,0,0,0,2.78,5c-.37.41-.73.83-1.07,1.26a8.06,8.06,0,0,0-3.31-1.27C85.22,40,79,42.1,82.54,47.79a7.15,7.15,0,0,0,.95,1.2c-.61,2.6-2.09,6.8-2,9.72.29,16.67,1.76,21.2,3.07,21.35l.05,0c1.16.15.67-5.7,1-9.87s-1-14.59,3.64-16.67a16,16,0,0,1,3.66-1.16l.65,0c0,1.28,0,2.56,0,3.65,0,0,4.17.46,4.86-3.41,0-.16.06-.31.1-.46.61-.07.64-.06,1.2-.15-.17,1.47-.45,2.69-.45,2.69,1.6-1.34,3.64-.3,12.8-.74a11.09,11.09,0,0,0,6.85-2.32c2.92.07,5.22.15,6.53.09,2.91-.15,9.16-1.34,9.89,7.44s1.42,20.76,2,20.76,2.27-3.46,2.71-7.48a153.82,153.82,0,0,0,.64-18.7C142.91,53.07,143.48,50,143.48,50Z"/><g class="cls-19"><path class="cls-20" d="M94.71,56.09h0S94.61,56.36,94.71,56.09Z"/><g class="cls-21"><path class="cls-15" d="M125.75,40.42s-3.84,3.11-13.19,4.17-11.73,10.53-11.73,10.53,2.93-5.17,12.92-6.67C124.68,46.8,126.51,44.29,125.75,40.42Z"/><path class="cls-15" d="M96.6,50.92c-1.33,3.65-1.76,4.83-1.89,5.17,0,0,2.12.06,3.78-4.72s10.61-7,10.61-7S99,44.39,96.6,50.92Z"/></g><path class="cls-22" d="M87.17,31.82s3.16,3.24,9.38,1.4,10,5.18,10,5.18S109.31,25.13,93.39,28,87.17,31.82,87.17,31.82Z"/><path class="cls-22" d="M107.72,22.14s-.9,1.7,2.42,4.52,4.63,6.58,3.59,9c0,0,5-6-.86-10.87S107.72,22.14,107.72,22.14Z"/><path class="cls-22" d="M122.88,37.41a21.31,21.31,0,0,1-12.43,4.81c-7.94.57-13.33,4.38-15.74,7.56,0,0-.62-9.61,12.08-11S122.88,37.41,122.88,37.41Z"/><path class="cls-22" d="M86.07,36.91s2.28,4,.76,6.22,1.8,6.72,5.8,5.51a5.22,5.22,0,0,1-3.38-5.23C89.52,39.46,89,38.18,86.07,36.91Z"/></g><path class="cls-23" d="M143.48,50s-1.15-.69-3.32-2.25c1.21-3.53.79-8.06-1.57-10.43s-6.63-3.1-10.24-3.43a25.27,25.27,0,0,0-4.62-2.9c-.77-2.89-2.49-6.58-6.35-6.91C111,23.51,111,22.31,111,22.31a11.49,11.49,0,0,0-.14,2.4c-3.92-.43-4.47-1.05-4.88-2.07a12.71,12.71,0,0,0-.46,6.31l-1,.18a8,8,0,0,0-3.29-1c-7.69-.66-5.34,2.52-9.72,4-1.38.48-4.81.11-4.81.11a5.5,5.5,0,0,0,2.78,5c-.37.41-.73.83-1.07,1.26a8.06,8.06,0,0,0-3.31-1.27C85.22,40,79,42.1,82.54,47.79a7.15,7.15,0,0,0,.95,1.2c-.61,2.6-2.09,6.8-2,9.72.29,16.67,1.76,21.2,3.07,21.35l.05,0c1.16.15.67-5.7,1-9.87s-1-14.59,3.64-16.67a16,16,0,0,1,3.66-1.16l.65,0c0,1.28,0,2.56,0,3.65,0,0,4.17.46,4.86-3.41,0-.16.06-.31.1-.46.61-.07.64-.06,1.2-.15-.17,1.47-.45,2.69-.45,2.69,1.6-1.34,3.64-.3,12.8-.74a11.09,11.09,0,0,0,6.85-2.32c2.92.07,5.22.15,6.53.09,2.91-.15,9.16-1.34,9.89,7.44s1.42,20.76,2,20.76,2.27-3.46,2.71-7.48a153.82,153.82,0,0,0,.64-18.7C142.91,53.07,143.48,50,143.48,50Z"/><path id="_Path_" data-name="&lt;Path&gt;" class="cls-24" d="M132.67,76a69.83,69.83,0,0,0-10.36.05,23.63,23.63,0,0,0-6.22,1.16,1.91,1.91,0,0,0-1.11,1,2.77,2.77,0,0,0-.18,1,8.54,8.54,0,0,0,.19,1.92,10.9,10.9,0,0,0,1.76,4.25A4,4,0,0,0,119.49,87c.74.13,1.49.26,2.24.35a30.9,30.9,0,0,0,9.81-.15c.39-.08.77-.15,1.15-.27a3.66,3.66,0,0,0,1.81-1.06A9.64,9.64,0,0,0,136,82.57a15.68,15.68,0,0,0,.6-4.47,1.6,1.6,0,0,0-.71-1.35A9.47,9.47,0,0,0,132.67,76Z"/><path id="_Path_2" data-name="&lt;Path&gt;" class="cls-24" d="M106.84,81.18a8.55,8.55,0,0,0,.19-1.92,2.77,2.77,0,0,0-.18-1,1.91,1.91,0,0,0-1.11-1,23.63,23.63,0,0,0-6.22-1.16A69.84,69.84,0,0,0,89.15,76a9.47,9.47,0,0,0-3.22.73,1.6,1.6,0,0,0-.71,1.35,15.67,15.67,0,0,0,.6,4.47,9.64,9.64,0,0,0,1.49,3.28,3.66,3.66,0,0,0,1.81,1.06c.38.11.76.19,1.15.27a30.9,30.9,0,0,0,9.81.15c.75-.09,1.5-.22,2.24-.35a4,4,0,0,0,2.75-1.54A10.9,10.9,0,0,0,106.84,81.18Z"/><path class="cls-25" d="M128.31,74.48c-1.77,0-3.16,0-3.55.06-.68,0-1.36.05-2,.1a42.75,42.75,0,0,0-7.19,1,21.51,21.51,0,0,1-4.58.82h-.09a21.61,21.61,0,0,1-4.58-.82,42.75,42.75,0,0,0-7.19-1c-.68,0-1.36-.08-2-.1-.38,0-1.78-.06-3.55-.06-9.5,0-10.61,1.13-11,1.5a1.17,1.17,0,0,0-.36.86c0,.78.07,1.59.12,2.41a1.76,1.76,0,0,0,.33.94l0,.07a7.56,7.56,0,0,0,.66.83,2.27,2.27,0,0,1,.51.77l.29.74.38,1A18.2,18.2,0,0,0,85.62,86a4.05,4.05,0,0,0,2,1.76,8.42,8.42,0,0,0,1.68.5,33.59,33.59,0,0,0,6.15.57h0c1.43,0,2.95-.08,4.92-.27s4.41-.42,5.92-2.31a12.94,12.94,0,0,0,1.93-3.55c.16-.41.3-.82.44-1.23l.2-.56a.9.9,0,0,1,.67-.64,4.61,4.61,0,0,1,1.12-.14h.27a4.6,4.6,0,0,1,1.33.13.9.9,0,0,1,.67.64l.2.57c.14.41.29.82.44,1.23a12.94,12.94,0,0,0,1.93,3.55c1.51,1.89,4,2.12,5.92,2.31s3.48.27,4.92.27a33.6,33.6,0,0,0,6.15-.57,8.43,8.43,0,0,0,1.68-.5,4.05,4.05,0,0,0,2-1.76,18.19,18.19,0,0,0,1.11-2.39l.39-1,.28-.72a2.29,2.29,0,0,1,.51-.77,7.57,7.57,0,0,0,.66-.83l0-.07a1.81,1.81,0,0,0,.33-1c0-.78.1-1.58.12-2.36a1.17,1.17,0,0,0-.36-.86C138.92,75.61,137.82,74.48,128.31,74.48Zm-6.51,12.25c-.72-.09-1.46-.21-2.21-.34a3.45,3.45,0,0,1-2.39-1.33,10.33,10.33,0,0,1-1.64-4,8.12,8.12,0,0,1-.18-1.79,2.26,2.26,0,0,1,.13-.78,1.31,1.31,0,0,1,.79-.71,23.16,23.16,0,0,1,6-1.12c1.71-.14,3.51-.22,5.35-.22,1.61,0,3.27.06,4.93.17a9.06,9.06,0,0,1,2.93.64,1,1,0,0,1,.44.88,15.39,15.39,0,0,1-.58,4.28,9.11,9.11,0,0,1-1.37,3,3,3,0,0,1-1.53.88c-.34.1-.7.17-1.09.25a25.11,25.11,0,0,1-4.89.46A39.55,39.55,0,0,1,121.81,86.73Zm-17.19-1.67a3.45,3.45,0,0,1-2.39,1.33c-.75.13-1.48.26-2.21.34a39.55,39.55,0,0,1-4.73.31,25.11,25.11,0,0,1-4.89-.46c-.4-.08-.75-.15-1.09-.25a3,3,0,0,1-1.53-.88,9.12,9.12,0,0,1-1.37-3,15.39,15.39,0,0,1-.58-4.28,1,1,0,0,1,.44-.88,9.06,9.06,0,0,1,2.93-.64c1.66-.11,3.31-.17,4.93-.17,1.84,0,3.64.07,5.35.22a23.17,23.17,0,0,1,6,1.12,1.31,1.31,0,0,1,.79.71,2.26,2.26,0,0,1,.13.78,8.16,8.16,0,0,1-.18,1.79A10.33,10.33,0,0,1,104.61,85.06Z"/><path class="cls-26" d="M108.66,82.85,107.48,90h0a7.2,7.2,0,0,1,7.15,0h0l-1.18-7.18Z"/><path class="cls-5" d="M95.41,165.05a6,6,0,0,0,3.37-11.49l-.63-.21-4.49,11.12Q94.52,164.79,95.41,165.05Z"/><path class="cls-7" d="M93.66,164.47l4.49-11.12a16.28,16.28,0,0,1-3.26-1.52L90.37,163A28.35,28.35,0,0,0,93.66,164.47Z"/><path class="cls-9" d="M76.3,145.92A28,28,0,0,0,90.37,163l4.52-11.19a16.16,16.16,0,0,1-7.73-14.19h-12A27.16,27.16,0,0,0,76.3,145.92Z"/></g></g></svg>